# xmcd CD database file
#
# Track frame offsets:
#	150
#	34417
#	58370
#	69775
#	96992
#	129057
#	144342
#	164527
#	176355
#
# Disc length: 2687 seconds
#
# Revision: 2
# Processed by: cddbd v1.5.2PL0 Copyright (c) Steve Scherf et al.
# Submitted via: CDex 1.51
#
DISCID=780a7d09
DTITLE=King Curtis - Live At Fillmore West
DYEAR=1971
DGENRE=Soul
TTITLE0=Memphis Soul Stew
TTITLE1=A Whiter Shade Of Pale
TTITLE2=Whole Lotta Love
TTITLE3=I Stand Accused
TTITLE4=Changes
TTITLE5=Ode To Billie Joe
TTITLE6=Mr. Bojangles
TTITLE7=Signed Sealed Delivered I'm Yours
TTITLE8=Soul Serenade
EXTD=YEAR: 1971
EXTT0=
EXTT1=
EXTT2=
EXTT3=
EXTT4=
EXTT5=
EXTT6=
EXTT7=
EXTT8=
PLAYORDER=
